<svg width="25" height="25" viewBox="0 0 25 25" fill="none" xmlns="http://www.w3.org/2000/svg">
<path d="M12.0996 3C13.2945 3 14.4781 3.23519 15.582 3.69238L15.9912 3.87402C16.9342 4.32016 17.7949 4.92586 18.5342 5.66504L18.8428 5.98926C19.5433 6.76232 20.1067 7.65133 20.5068 8.61719C20.907 9.58317 21.1371 10.6103 21.1885 11.6523L21.1992 12.0996C21.1992 13.1451 21.0193 14.1818 20.668 15.1641L20.5068 15.582C20.1067 16.5481 19.5434 17.4368 18.8428 18.21L18.5342 18.5342C17.7948 19.2735 16.9344 19.879 15.9912 20.3252L15.582 20.5068C14.616 20.907 13.589 21.1372 12.5469 21.1885L12.0996 21.1992C11.0542 21.1992 10.0174 21.0193 9.03516 20.668L8.61719 20.5068C7.65133 20.1067 6.76232 19.5433 5.98926 18.8428L5.66504 18.5342C4.92586 17.7949 4.32016 16.9342 3.87402 15.9912L3.69238 15.582C3.23519 14.4781 3 13.2945 3 12.0996L3.01074 11.6523C3.06207 10.6102 3.29225 9.58318 3.69238 8.61719L3.87402 8.20801C4.32023 7.26492 4.92573 6.40435 5.66504 5.66504L5.98926 5.35645C6.7624 4.65586 7.65123 4.09253 8.61719 3.69238L9.03516 3.53125C10.0174 3.17995 11.0542 3.00004 12.0996 3ZM12.0996 5.19922C11.3068 5.19926 10.5203 5.33606 9.77539 5.60254L9.45898 5.72461C8.72671 6.02796 8.05293 6.45527 7.4668 6.98633L7.2207 7.2207C6.66019 7.78122 6.20063 8.43344 5.8623 9.14844L5.72461 9.45898C5.42119 10.1915 5.24691 10.9705 5.20801 11.7607L5.19922 12.0996C5.19922 13.0056 5.37798 13.9032 5.72461 14.7402L5.8623 15.0508C6.20056 15.7657 6.66032 16.418 7.2207 16.9785L7.4668 17.2129C8.05286 17.7439 8.72681 18.1713 9.45898 18.4746L9.77539 18.5967C10.5203 18.8632 11.3068 19 12.0996 19L12.4385 18.9912C13.2288 18.9524 14.0077 18.778 14.7402 18.4746L15.0508 18.3369C15.7658 17.9986 16.418 17.5391 16.9785 16.9785L17.2129 16.7324C17.744 16.1462 18.1713 15.4726 18.4746 14.7402L18.5967 14.4238C18.8251 13.7852 18.9579 13.116 18.9912 12.4385L19 12.0996L18.9912 11.7607C18.9523 10.9705 18.778 10.1915 18.4746 9.45898C18.1713 8.72681 17.7439 8.05286 17.2129 7.4668L16.9785 7.2207C16.418 6.66032 15.7657 6.20056 15.0508 5.8623L14.7402 5.72461C13.9032 5.37798 13.0056 5.19922 12.0996 5.19922Z" fill="#5666F0"/>
<path d="M12.0022 14.0897C12.3914 14.0898 12.7073 14.4055 12.7073 14.7948C12.7072 15.184 12.3914 15.4998 12.0022 15.4999C11.6129 15.4999 11.2972 15.184 11.2971 14.7948C11.2971 14.4055 11.6129 14.0897 12.0022 14.0897ZM12.1428 8.50378C13.2794 8.57426 14.1874 9.48152 14.2581 10.618C14.3197 11.5961 13.7467 12.5038 12.8391 12.8651C12.7069 12.918 12.6184 13.0327 12.6184 13.1649C12.6184 13.5085 12.3458 13.782 12.0022 13.7821C11.6586 13.7821 11.385 13.5085 11.385 13.1649C11.385 12.5217 11.7731 11.9575 12.3811 11.7196C12.795 11.5522 13.0597 11.1384 13.0334 10.6981C12.9982 10.1871 12.5836 9.77242 12.0725 9.73718C11.7818 9.71957 11.5086 9.81678 11.2971 10.0106C11.0857 10.2045 10.9709 10.4689 10.9709 10.7596C10.9708 11.103 10.6981 11.3756 10.3547 11.3758C10.0112 11.3758 9.73769 11.1032 9.73755 10.7596C9.73755 10.1428 10.002 9.53415 10.4514 9.1112C10.9095 8.67968 11.5086 8.4686 12.1428 8.50378Z" fill="#5666F0"/>
</svg>
