<svg width="24" height="25" viewBox="0 0 24 25" fill="none" xmlns="http://www.w3.org/2000/svg">
<path d="M11.9996 3.09912C13.1945 3.09912 14.3781 3.33431 15.4821 3.7915L15.8912 3.97314C16.8342 4.41928 17.6949 5.02498 18.4342 5.76416L18.7428 6.08838C19.4433 6.86144 20.0067 7.75045 20.4069 8.71631C20.807 9.68229 21.0372 10.7094 21.0885 11.7515L21.0992 12.1987C21.0992 13.2442 20.9193 14.2809 20.568 15.2632L20.4069 15.6812C20.0067 16.6472 19.4434 17.5359 18.7428 18.3091L18.4342 18.6333C17.6948 19.3727 16.8344 19.9781 15.8912 20.4243L15.4821 20.606C14.516 21.0061 13.4891 21.2363 12.4469 21.2876L11.9996 21.2983C10.9542 21.2983 9.91744 21.1184 8.93518 20.7671L8.51721 20.606C7.55136 20.2058 6.66235 19.6424 5.88928 18.9419L5.56506 18.6333C4.82589 17.894 4.22018 17.0333 3.77405 16.0903L3.59241 15.6812C3.13522 14.5772 2.90002 13.3936 2.90002 12.1987L2.91077 11.7515C2.96209 10.7094 3.19228 9.68231 3.59241 8.71631L3.77405 8.30713C4.22025 7.36404 4.82575 6.50347 5.56506 5.76416L5.88928 5.45557C6.66242 4.75498 7.55125 4.19165 8.51721 3.7915L8.93518 3.63037C9.91744 3.27907 10.9542 3.09917 11.9996 3.09912ZM11.9996 5.29834C11.2068 5.29838 10.4203 5.43518 9.67542 5.70166L9.35901 5.82373C8.62673 6.12708 7.95296 6.55439 7.36682 7.08545L7.12073 7.31982C6.56021 7.88034 6.10065 8.53256 5.76233 9.24756L5.62463 9.55811C5.32122 10.2906 5.14693 11.0696 5.10803 11.8599L5.09924 12.1987C5.09924 13.1047 5.278 14.0023 5.62463 14.8394L5.76233 15.1499C6.10058 15.8648 6.56035 16.5172 7.12073 17.0776L7.36682 17.312C7.95289 17.843 8.62684 18.2704 9.35901 18.5737L9.67542 18.6958C10.4203 18.9623 11.2068 19.0991 11.9996 19.0991L12.3385 19.0903C13.1288 19.0515 13.9077 18.8771 14.6403 18.5737L14.9508 18.436C15.6659 18.0977 16.318 17.6382 16.8785 17.0776L17.1129 16.8315C17.644 16.2454 18.0713 15.5717 18.3746 14.8394L18.4967 14.5229C18.7252 13.8843 18.8579 13.2151 18.8912 12.5376L18.9 12.1987L18.8912 11.8599C18.8523 11.0696 18.678 10.2906 18.3746 9.55811C18.0713 8.82593 17.6439 8.15198 17.1129 7.56592L16.8785 7.31982C16.3181 6.75944 15.6657 6.29968 14.9508 5.96143L14.6403 5.82373C13.8032 5.4771 12.9056 5.29834 11.9996 5.29834ZM12.0035 10.7993C12.5003 10.7996 12.9039 11.2028 12.9039 11.6997V15.1997L12.899 15.2915C12.8527 15.7449 12.4691 16.0998 12.0035 16.1001C11.5378 16.1001 11.1544 15.745 11.108 15.2915L11.1031 15.1997V11.6997C11.1031 11.2027 11.5065 10.7993 12.0035 10.7993ZM12.0035 8.29932C12.5003 8.29963 12.9039 8.70285 12.9039 9.19971V9.20947L12.899 9.30127C12.8528 9.75477 12.4692 10.1096 12.0035 10.1099C11.5377 10.1099 11.1543 9.7549 11.108 9.30127L11.1031 9.20947V9.19971C11.1031 8.70265 11.5065 8.29932 12.0035 8.29932Z" fill="#5666F0"/>
</svg>
