<svg width="132" height="35" viewBox="0 0 132 35" fill="none" xmlns="http://www.w3.org/2000/svg">
<path fill-rule="evenodd" clip-rule="evenodd" d="M0.256527 15.5036C-0.0990205 15.0963 -0.0832167 14.4871 0.292984 14.0984L4.2983 9.96013C4.71179 9.53291 5.40037 9.53291 5.81386 9.96013L8.87503 13.1229C9.28852 13.5501 9.9771 13.5501 10.3906 13.1229L13.3641 10.0507C13.7776 9.62348 14.4662 9.62348 14.8797 10.0507L18.8708 14.1743C19.2468 14.5628 19.2628 15.1716 18.9077 15.579L10.4151 25.3224C9.99624 25.8029 9.24538 25.8032 8.8262 25.3229L0.256527 15.5036ZM23.3848 22.2368L24.9814 19.7895C25.8176 20.5789 27.1101 21.0526 28.3518 21.0526C29.2388 21.0526 29.923 20.6053 29.923 19.9737C29.923 18.0526 23.9677 18.7368 23.9677 14.6316C23.9677 12.1842 26.2484 10.6579 28.6813 10.6579C30.2778 10.6579 32.0264 11.2895 32.8373 11.9474L31.2915 14.4211C30.6579 13.9474 29.8217 13.5526 28.9347 13.5526C28.0224 13.5526 27.2621 13.9211 27.2621 14.5789C27.2621 16.2368 33.2175 15.5789 33.2175 20C33.2175 22.4474 30.9114 23.9474 28.3265 23.9474C26.6286 23.9474 24.8293 23.3421 23.3848 22.2368ZM44.8747 19.1053L47.4089 21.0789C45.9644 23.0789 44.1398 23.9474 41.8337 23.9474C38.0324 23.9474 35.2448 21 35.2448 17.3158C35.2448 13.6053 38.1084 10.6579 41.859 10.6579C43.9877 10.6579 45.8884 11.6842 47.0288 13.2105L44.6973 15.3421C44.0384 14.4474 43.0501 13.8158 41.859 13.8158C39.9584 13.8158 38.5392 15.3684 38.5392 17.3158C38.5392 19.3158 39.9331 20.7895 41.9351 20.7895C43.2782 20.7895 44.3425 19.9474 44.8747 19.1053ZM58.4326 19.2105V15.3947C57.7484 14.4474 56.6587 13.8158 55.3916 13.8158C53.4656 13.8158 52.2238 15.4737 52.2238 17.3158C52.2238 19.3158 53.6176 20.7895 55.4676 20.7895C56.7094 20.7895 57.7991 20.1579 58.4326 19.2105ZM61.727 10.9211V23.6842H58.5593V22.6579C57.5456 23.5526 56.3799 23.9474 55.1382 23.9474C53.3135 23.9474 51.5903 23.1053 50.5006 21.7895C49.5376 20.6316 48.9294 19.0526 48.9294 17.3158C48.9294 13.5526 51.6156 10.6579 54.9608 10.6579C56.3546 10.6579 57.5963 11.1316 58.5593 11.9474V10.9211H61.727ZM68.8228 5V23.6842H65.5283V5H68.8228ZM81.1136 19.2105V15.3947C80.4293 14.4474 79.3396 13.8158 78.0725 13.8158C76.1466 13.8158 74.9048 15.4737 74.9048 17.3158C74.9048 19.3158 76.2986 20.7895 78.1486 20.7895C79.3903 20.7895 80.48 20.1579 81.1136 19.2105ZM84.408 10.9211V23.6842H81.2403V22.6579C80.2266 23.5526 79.0609 23.9474 77.8191 23.9474C75.9945 23.9474 74.2713 23.1053 73.1816 21.7895C72.2186 20.6316 71.6104 19.0526 71.6104 17.3158C71.6104 13.5526 74.2966 10.6579 77.6417 10.6579C79.0355 10.6579 80.2773 11.1316 81.2403 11.9474V10.9211H84.408ZM88.2093 30V10.9211H91.377V11.9474C92.34 11.1316 93.5817 10.6579 94.9755 10.6579C98.3207 10.6579 101.007 13.5526 101.007 17.3158C101.007 19.0526 100.424 20.6316 99.4611 21.7895C98.3714 23.1053 96.6228 23.9474 94.7982 23.9474C93.5564 23.9474 92.492 23.5789 91.5037 22.7895V30H88.2093ZM91.5037 15.3947V19.2105C92.1373 20.1579 93.227 20.7895 94.4687 20.7895C96.3187 20.7895 97.7125 19.3158 97.7125 17.3158C97.7125 15.4737 96.4707 13.8158 94.5447 13.8158C93.2776 13.8158 92.1879 14.4474 91.5037 15.3947ZM112.537 19.2105V15.3947C111.853 14.4474 110.764 13.8158 109.496 13.8158C107.57 13.8158 106.329 15.4737 106.329 17.3158C106.329 19.3158 107.723 20.7895 109.572 20.7895C110.814 20.7895 111.904 20.1579 112.537 19.2105ZM115.832 10.9211V23.6842H112.664V22.6579C111.65 23.5526 110.485 23.9474 109.243 23.9474C107.418 23.9474 105.695 23.1053 104.605 21.7895C103.642 20.6316 103.034 19.0526 103.034 17.3158C103.034 13.5526 105.72 10.6579 109.066 10.6579C110.459 10.6579 111.701 11.1316 112.664 11.9474V10.9211H115.832ZM123.536 30H120.089L123.485 22.3947L117.986 10.9211H121.61L125.208 18.5789L128.528 10.9211H132L123.536 30Z" fill="#272727"/>
</svg>
